# xmcd CD database file
# Copyright (C) 1993-1996 Ti Kan
#
# Track frame offsets:
# 150
# 17595
# 36160
# 49652
# 64135
# 76725
# 95720
# 116320
# 129972
# 145112
#
# Disc length: 2098 seconds
# Revision: 0
# Processed by: cddbd v1.4b41PL1 Copyright (c) Steve Scherf et al.
# Submitted via: CDSpectrumPro v3.2.327
#
DISCID=7808300a
DTITLE=George Fox - With All My Might
DYEAR=1900
DGENRE=
TTITLE0=No Trespassing
TTITLE1=This House ( Is Haunted )
TTITLE2=Bachelor Girl
TTITLE3=I Threw It All Away
TTITLE4=Lime Rickey
TTITLE5=Comin' Around
TTITLE6=With All My Might
TTITLE7=Lonely Tears
TTITLE8=Mr. President
TTITLE9=Long Gone Lonesome Blues
EXTD=
EXTT0=
EXTT1=
EXTT2=
EXTT3=
EXTT4=
EXTT5=
EXTT6=
EXTT7=
EXTT8=
EXTT9=
PLAYORDER=
